# xmcd CD database file
#
# Track frame offsets:
#	150
#	13582
#	24137
#	34187
#	48555
#	61742
#	75107
#	86667
#	99037
#	111180
#	125340
#	139277
#	151022
#	163932
#	177697
#	191220
#	200567
#	211380
#	225392
#	236262
#	248010
#	259912
#	272957
#	285732
#	298780
#	310730
#	323607
#
# Disc length: 4463 seconds
#
# Revision: 0
# Processed by: cddbd v1.5.2PL0 Copyright (c) Steve Scherf et al.
# Submitted via: CDex 1.70beta2
#
DISCID=71116d1b
DTITLE=Jones Classic Country - Jones Classic Country CCC-622
DYEAR=0000
DGENRE=Country
TTITLE0=Eddy Arnold/I Really Don't Want To Know
TTITLE1=Eddy Arnold/Last Word In Lonesome Is Me
TTITLE2=Eddy Arnold/Misty Blue
TTITLE3=Eddy Arnold/Tennessee Stud
TTITLE4=Eddy Arnold/Then You Can Tell Me Goodbye
TTITLE5=Moe Bandy/Soft Lights And Hard Country Music
TTITLE6=Roy Clark/I Never Picked Cotton
TTITLE7=Roy Clark/Thank God And Greyhound
TTITLE8=Tennessee Ernie Ford/Shot Gun Boogie
TTITLE9=Lefty Frizzell/I Want To Be With You Always
TTITLE10=Stonewall Jackson/Don't Be Angry
TTITLE11=Sonny James/Bright Lights, Big City
TTITLE12=Sonny James/Running Bear
TTITLE13=George Morgan/Candy Kisses
TTITLE14=George Morgan/Room Full Of Roses
TTITLE15=Buck Owens/Buckaroo
TTITLE16=Buck Owens/Waitin' In Your Welfare Line
TTITLE17=Ray Price/City Lights
TTITLE18=Jim Reeves/ Am I Losing You
TTITLE19=Carl Smith/Hey Joe!
TTITLE20=Kitty Wells/It Wasn't God Who Made Honky Tonk Angels
TTITLE21=Don Williams/You're My Best Friend
TTITLE22=Hank Williams Sr/Cold, Cold Heart
TTITLE23=Hank Williams Sr/I'm So Lonesome I Could Cry
TTITLE24=Hank Williams Sr/Kaw-Liga
TTITLE25=Hank Williams Sr/Lovesick Blues
TTITLE26=Hank Williams Jr/Texas Women
EXTD=YEAR: 0000
EXTT0=
EXTT1=
EXTT2=
EXTT3=
EXTT4=
EXTT5=
EXTT6=
EXTT7=
EXTT8=
EXTT9=
EXTT10=
EXTT11=
EXTT12=
EXTT13=
EXTT14=
EXTT15=
EXTT16=
EXTT17=
EXTT18=
EXTT19=
EXTT20=
EXTT21=
EXTT22=
EXTT23=
EXTT24=
EXTT25=
EXTT26=
PLAYORDER=
